# xmcd CD database file
#
# Track frame offsets:
#	150
#	16750
#	33737
#	50967
#	64210
#	77527
#	93355
#	109485
#	127245
#	140670
#	162020
#	179705
#	195580
#	212037
#	223227
#	240247
#	263912
#	277495
#	302342
#
# Disc length: 4252 seconds
#
# Revision: 0
# Processed by: cddbd v1.5.1PL0 Copyright (c) Steve Scherf et al.
# Submitted via: CDex 1.50beta10
#
DISCID=27109a13
DTITLE=Various Artist - All Time 75 Salsa and Dance Favourites [CD4)
DYEAR=1991
DGENRE=Salsa
TTITLE0=Ze Maria - Dancando Lambada
TTITLE1=Jobim, De Moreas - The Girl From Ipanema
TTITLE2=Trad. Arr. Majer, van Ravenswaay - Mexico
TTITLE3=Bulling, D´Andrea, Lloyd - Johnny´s Mambo
TTITLE4=Trad. - Studying For Elephant
TTITLE5=David - Tirandentes
TTITLE6=H. Hilderbrandt-Winhauer, Anna Lia Bright - Jogo De Fogo
TTITLE7=Machuca - Quisiera Saber-Canta Mi Corazon
TTITLE8=Vargas, De Manungo - Rabo ´E Vaca
TTITLE9=H. Hilderbrandt-Winhauer, Anna Lia Bright - Fantasia
TTITLE10=Olatunji - Jingo
TTITLE11=J. and F. Förster - Diamantina
TTITLE12=Trad. Arr. Majer, van Ravenswaay - Despedida De Cuba
TTITLE13=L. Perez - Detodoun Poco
TTITLE14=Trad. - The Bell and The Bugle
TTITLE15=Velez, Sembello, Waldman - Margarita
TTITLE16=Salcedo - Lo Que Trae Willie
TTITLE17=Machuca - No Me Reganes-Buscando Ambiente
TTITLE18=Machuca - Arrepentete-Chicha Bum-La Runita Y El Sabor
EXTD=YEAR: 1991
EXTT0=
EXTT1=
EXTT2=
EXTT3=
EXTT4=
EXTT5=
EXTT6=
EXTT7=
EXTT8=
EXTT9=
EXTT10=
EXTT11=
EXTT12=
EXTT13=
EXTT14=
EXTT15=
EXTT16=
EXTT17=
EXTT18=
PLAYORDER=
